<svg width="454" height="400" viewBox="0 0 454 400" fill="none" xmlns="http://www.w3.org/2000/svg">
<g clip-path="url(#clip0_501_39530)">
<path d="M36.4143 556.382C40.3273 560.295 44.5708 564.025 49.1818 567.552C72.2184 585.243 104.073 597.918 146.38 602.162C362.729 623.821 434.227 522.324 451.698 366.174C459.487 296.587 441.263 250.661 418.668 221.139C416.298 218.053 413.891 215.15 411.466 212.413C410.089 210.87 408.692 209.364 407.241 207.894C378.069 178.097 335.945 164.062 294.557 170.878C262.022 176.223 232.464 193.602 208.491 228.34C170.133 283.875 206.415 331.619 96.8165 334.816C12.9001 337.241 -40.2641 479.888 36.4143 556.382Z" fill="#FFBA44"/>
<path d="M367.636 219.191C367.636 219.191 393.226 273.935 363.687 374.421C334.147 474.908 295.018 466.99 269.74 466.99C225.577 466.99 136.15 425.399 118.679 392.626C101.209 359.853 134.184 357.906 195.927 353.056C257.689 348.207 303.762 197.513 367.636 219.191Z" fill="#F8A12C"/>
<path d="M371.585 332.517C372.504 332.517 373.294 331.838 373.404 330.901C376.067 309.609 385.234 293.333 392.436 283.431C400.28 272.666 407.591 266.88 407.665 266.824C408.455 266.2 408.602 265.043 407.977 264.234C407.352 263.426 406.195 263.297 405.387 263.922C405.074 264.161 397.671 270.021 389.533 281.153C382.038 291.423 372.522 308.305 369.73 330.442C369.601 331.452 370.317 332.37 371.328 332.499C371.42 332.517 371.512 332.517 371.585 332.517Z" fill="#F8A12C"/>
<path d="M36.4166 556.382C40.3295 560.295 44.5731 564.025 49.1841 567.552C75.8029 583.534 108.3 594.06 144.086 598.175C155.182 599.461 166.388 600.086 177.594 600.086C208.493 600.086 239.466 595.273 268.656 585.812C344.6 561.214 399.399 508.582 422.95 437.636C435.865 398.727 442.202 360.902 441.798 325.19C441.486 296.587 436.838 269.27 428.039 243.992C425.099 235.56 421.903 227.955 418.67 221.139C416.3 218.053 413.893 215.151 411.469 212.413C410.091 210.87 408.695 209.364 407.243 207.894C413.012 217.778 419.184 230.325 424.456 245.48C438.032 284.554 448.154 349.402 419.276 436.405C396.129 506.158 342.212 557.907 267.481 582.12C188.083 607.838 96.2493 597.404 38.9701 556.18C38.1434 555.593 37.0779 555.721 36.4166 556.382Z" fill="#F8A12C"/>
<path d="M353.694 155.96C353.694 155.96 383.564 125.429 340.063 103.917C296.543 82.4048 245.289 115.27 236.894 139.243C228.462 163.217 353.694 155.96 353.694 155.96Z" fill="#218C79"/>
<path d="M301.721 135.017C301.978 135.017 302.254 134.925 302.474 134.742C314.341 124.583 334.237 125.52 334.439 125.52C334.457 125.52 334.476 125.52 334.494 125.52C335.1 125.52 335.614 125.042 335.633 124.436C335.67 123.793 335.174 123.26 334.549 123.223C333.704 123.168 313.533 122.231 300.968 132.996C300.49 133.4 300.435 134.135 300.839 134.613C301.06 134.888 301.39 135.017 301.721 135.017Z" fill="#145B4F"/>
<path d="M330.875 136.469C331.279 136.469 331.683 136.249 331.885 135.863C332.179 135.294 331.977 134.614 331.408 134.302C330.82 133.989 317.06 126.751 307.306 129.029C306.681 129.176 306.295 129.783 306.442 130.407C306.589 131.032 307.195 131.418 307.82 131.271C316.748 129.195 330.195 136.267 330.324 136.341C330.508 136.433 330.691 136.469 330.875 136.469Z" fill="#145B4F"/>
<path d="M74.623 330.02C94.8305 314.479 167.412 320.872 224.269 328.918C225.886 354.673 217.95 333.29 222.744 358.623C151.761 362.26 131.81 367.863 131.81 367.863C131.81 367.863 142.428 425.638 141.914 449.796C141.4 473.953 149.96 543.853 149.96 543.853L98.7802 553.497C98.7802 553.515 45.6895 352.285 74.623 330.02Z" fill="#1A060A"/>
<path opacity="0.1" d="M137.691 532.427C137.911 532.5 138.168 532.519 138.407 532.464C139.16 532.298 139.62 531.563 139.473 530.829C139.418 530.571 134.017 505.036 133.704 463.758C133.392 422.186 120.643 360.259 120.514 359.652C120.367 358.899 119.633 358.422 118.879 358.587C118.126 358.734 117.649 359.469 117.814 360.222C117.942 360.846 130.636 422.498 130.93 463.795C131.243 505.367 136.699 531.159 136.754 531.417C136.882 531.913 137.25 532.28 137.691 532.427Z" fill="#E6EFF5"/>
<path d="M88.2237 140.005C88.2237 140.005 87.6151 140.025 88.9281 136.49C91.0434 130.654 86.2703 121.189 89.2544 117.839C93.2516 113.362 96.8314 122.08 102.476 139.465C103.95 144.054 103.874 160.767 102.73 166.031C101.86 170.024 102.667 175.334 100.585 177.623C93.9922 184.867 75.4323 188.194 71.8489 184.474C66.5865 179.029 62.6868 164.902 59.4526 160.107C56.1895 155.315 39.0112 122.095 43.2203 122.046C47.4295 121.997 56.755 137.109 56.755 137.109C56.755 137.109 45.2061 110.641 49.4613 108.642C53.4637 106.75 64.2067 131.511 64.2067 131.511C64.2067 131.511 52.7177 97.8607 59.0902 98.3347C62.2764 98.5716 73.4696 128.555 73.4696 128.555C73.4696 128.555 67.4448 108.615 76.0103 107.459C85.033 106.208 90.1143 115.532 90.1143 115.532C90.1143 115.532 90.3332 121.849 82.332 117.032C75.277 112.777 88.2237 140.005 88.2237 140.005Z" fill="#F69D84"/>
<path d="M58.2727 145.769C57.8891 145.335 57.8621 144.64 58.2625 144.201C67.5677 133.484 81.5972 133.428 82.2081 133.436C82.8767 133.441 83.3852 133.981 83.3787 134.62C83.3745 135.289 82.8344 135.798 82.1946 135.791C82.0503 135.803 68.6317 135.868 60.0719 145.74C59.6473 146.239 58.8967 146.3 58.3952 145.846C58.3351 145.822 58.3039 145.796 58.2727 145.769Z" fill="#DB7A6D"/>
<path d="M77.7616 168.135C77.4426 167.783 77.3718 167.265 77.5679 166.814C83.8335 154.076 76.6648 145.53 76.6001 145.449C76.1829 144.959 76.2378 144.199 76.7272 143.782C77.2165 143.365 77.9476 143.422 78.3913 143.88C78.3913 143.88 78.3913 143.88 78.3936 143.909C78.7461 144.317 86.6244 153.735 79.6864 167.863C79.3842 168.44 78.6788 168.7 78.1024 168.398C77.9823 168.349 77.8575 168.243 77.7616 168.135Z" fill="#DB7A6D"/>
<path d="M214.205 152.137L214.224 152.046C214.224 152.046 214.224 152.046 214.205 152.064L214.168 152.156L214.058 152.413L213.801 153.019L213.232 154.342C212.827 155.26 212.387 156.216 211.946 157.171C211.045 159.1 210.109 161.047 209.117 162.994C207.114 166.871 205.002 170.765 202.705 174.531C201.548 176.423 200.391 178.297 199.196 180.153C198.002 182.008 196.772 183.827 195.504 185.627C194.236 187.427 192.932 189.191 191.609 190.936C190.287 192.681 188.946 194.408 187.55 196.098C176.527 209.637 163.668 221.192 149.284 230.047C148.384 230.598 147.484 231.149 146.565 231.682C145.665 232.233 144.728 232.729 143.809 233.243L143.111 233.629C143.405 233.464 143.718 233.335 144.067 233.17C144.746 232.876 145.518 232.6 146.289 232.398C147.079 232.196 147.888 232.049 148.659 231.976C149.431 231.884 150.166 231.884 150.809 231.921C152.095 231.976 153.068 232.233 153.619 232.398C154.189 232.582 154.428 232.729 154.446 232.747C154.464 232.802 153.73 232.417 152.793 231.7C151.837 230.984 150.662 229.973 149.431 228.779C148.182 227.585 146.877 226.207 145.555 224.719C142.891 221.762 140.19 218.345 137.527 214.763C132.181 207.58 126.982 199.662 121.93 191.542C119.395 187.482 116.897 183.349 114.453 179.197C113.223 177.121 111.992 175.027 110.798 172.951L107.307 166.907L64.7061 186.27L65.496 188.327L66.2492 190.238L67.7739 194.004C68.8211 196.484 69.8866 198.964 70.9704 201.426C73.1565 206.33 75.4529 211.199 77.8594 216.048C82.7276 225.73 88.0183 235.301 94.301 244.853C97.4423 249.648 100.859 254.406 104.754 259.219C106.719 261.626 108.832 264.032 111.147 266.475C113.48 268.919 116.033 271.362 119.064 273.842C122.096 276.304 125.568 278.82 130.142 281.172C132.42 282.348 135.028 283.45 138.041 284.368C141.036 285.287 144.526 285.985 148.347 286.187C150.276 286.279 152.278 286.224 154.317 286.04C156.357 285.82 158.414 285.452 160.435 284.919C162.437 284.368 164.421 283.689 166.258 282.862C167.195 282.458 168.059 281.999 168.94 281.558L169.914 281.025C171.218 280.308 172.541 279.592 173.827 278.839C175.131 278.104 176.399 277.351 177.685 276.561C180.238 275.018 182.737 273.401 185.217 271.748C187.66 270.058 190.103 268.349 192.473 266.549C194.861 264.767 197.176 262.93 199.472 261.038C201.732 259.127 203.991 257.198 206.159 255.196C214.903 247.242 222.784 238.479 229.839 229.202C233.366 224.554 236.672 219.778 239.74 214.873C242.808 209.968 245.729 204.971 248.374 199.827C249.697 197.255 250.965 194.665 252.195 192.038C253.426 189.411 254.584 186.766 255.686 184.065C256.788 181.365 257.854 178.628 258.827 175.817C259.323 174.403 259.801 172.988 260.26 171.5C260.499 170.765 260.738 170.012 260.958 169.24L261.748 166.466L214.205 152.137Z" fill="#218C79"/>
<path d="M142.523 253.469C143.166 253.69 143.883 253.396 144.195 252.771C148.898 243.329 151.066 231.553 151.157 231.057C151.286 230.304 150.79 229.588 150.055 229.459C149.302 229.33 148.586 229.826 148.457 230.561C148.439 230.671 146.253 242.447 141.733 251.54C141.403 252.22 141.678 253.047 142.358 253.396C142.395 253.432 142.468 253.451 142.523 253.469Z" fill="#145B4F"/>
<path d="M153.161 245.717C153.4 245.791 153.657 245.809 153.933 245.735C154.668 245.552 155.127 244.799 154.925 244.064C154.815 243.66 152.408 234.125 150.957 231.113C150.626 230.433 149.8 230.139 149.12 230.47C148.44 230.8 148.146 231.627 148.477 232.307C149.818 235.062 152.224 244.633 152.261 244.725C152.371 245.221 152.72 245.589 153.161 245.717Z" fill="#145B4F"/>
<path d="M74.6804 208.902C75.0662 209.031 75.507 208.994 75.8745 208.737C89.5237 199.717 117.557 187.556 117.851 187.445C118.549 187.151 118.88 186.325 118.567 185.627C118.274 184.929 117.447 184.598 116.749 184.91C116.473 185.039 88.2011 197.274 74.3497 206.441C73.7068 206.863 73.5414 207.708 73.964 208.351C74.1477 208.627 74.4048 208.81 74.6804 208.902Z" fill="#145B4F"/>
<path d="M213.795 152.983C210.176 163.969 216.183 190.679 210.36 237.653C209.937 241.106 209.441 244.67 208.872 248.363C208.339 251.816 207.751 255.398 207.09 259.091C206.465 262.526 205.786 266.072 205.051 269.691C204.39 272.869 203.691 276.139 202.92 279.464C202.13 282.899 201.303 286.389 200.403 289.972C200.146 290.982 199.87 292.084 199.577 293.223C199.503 293.517 199.43 293.793 199.356 294.087C199.283 294.344 199.227 294.601 199.154 294.877C199.099 295.079 199.062 295.281 199.007 295.464C198.97 295.611 198.934 295.758 198.897 295.905C198.823 296.163 198.768 296.438 198.695 296.695C198.676 296.75 198.676 296.806 198.658 296.842C198.585 297.155 198.493 297.485 198.401 297.816C198.382 297.871 198.382 297.908 198.364 297.963C198.291 298.238 198.217 298.532 198.144 298.808C197.795 300.131 197.427 301.527 197.06 302.96C196.968 303.309 196.876 303.676 196.766 304.044C196.637 304.521 196.509 305.017 196.38 305.513C196.123 306.487 195.847 307.46 195.59 308.471C195.462 308.967 195.315 309.481 195.186 309.977C194.892 311.061 194.598 312.145 194.286 313.266C194.231 313.468 194.176 313.67 194.12 313.872C193.404 316.517 192.632 319.236 191.861 322.028C191.512 323.277 191.144 324.563 190.795 325.831C190.355 327.374 189.914 328.936 189.473 330.497C188.811 332.793 188.15 335.09 187.47 337.386C187.176 338.36 186.901 339.333 186.607 340.307C186.35 341.189 186.074 342.07 185.817 342.952C185.505 343.999 185.192 345.065 184.88 346.112C184.678 346.81 184.458 347.508 184.237 348.206C184.109 348.647 183.98 349.07 183.851 349.51C183.594 350.374 183.319 351.237 183.061 352.101C182.804 352.964 182.529 353.809 182.271 354.654C182.088 355.26 181.904 355.848 181.72 356.436C181.555 356.969 181.39 357.483 181.224 357.998C181.169 358.145 181.133 358.273 181.096 358.42C181.004 358.714 180.912 359.026 180.802 359.32C180.6 359.927 180.416 360.551 180.214 361.139C179.994 361.837 179.755 362.554 179.534 363.252C177.716 368.836 175.934 374.035 174.262 378.536C186.68 392.81 207.77 405.283 232.57 412.76L246.329 403.814L257.848 418.418C282.078 421.964 308.036 420.568 331.954 411.86C339.854 395.712 352.878 336.467 356.571 318.758C357.306 315.231 357.967 311.686 358.573 308.14C361.512 291.074 363.074 273.751 364.121 255.545C364.176 254.553 364.231 253.561 364.286 252.569C364.286 252.459 364.305 252.331 364.305 252.22C365.425 236.881 385.468 191.69 383.447 175.432C379.442 143.21 358.904 151.697 340.386 146.719C334.306 145.084 329.199 143.026 325.01 140.914C323.265 140.032 321.685 139.15 320.252 138.287C319.646 137.938 319.095 137.588 318.562 137.221C312.812 133.492 309.671 130.351 309.671 130.351L267.658 125.96C263.506 130.847 258.601 133.694 253.439 135.531C252.869 135.733 252.3 135.917 251.712 136.1C250.849 136.376 249.985 136.615 249.122 136.835C234.242 140.711 218.535 138.599 213.795 152.983Z" fill="#218C79"/>
<path d="M319.225 379.161C319.684 379.161 320.125 378.867 320.309 378.408C343.29 316.702 355.195 210.153 355.305 209.087C355.378 208.463 354.919 207.893 354.294 207.82C353.67 207.746 353.1 208.206 353.027 208.83C352.917 209.896 341.049 316.169 318.16 377.6C317.939 378.188 318.233 378.849 318.839 379.088C318.95 379.143 319.097 379.161 319.225 379.161Z" fill="#145B4F"/>
<path d="M278.592 151.9C278.151 153.241 279.749 154.968 282.174 155.758C284.599 156.548 286.914 156.125 287.355 154.784C287.796 153.443 286.197 151.716 283.772 150.926C281.347 150.118 279.033 150.559 278.592 151.9Z" fill="#145B4F"/>
<path d="M259.834 147.105C259.393 148.446 260.991 150.173 263.416 150.963C265.841 151.753 268.156 151.33 268.597 149.989C269.038 148.648 267.439 146.921 265.015 146.131C262.59 145.341 260.257 145.764 259.834 147.105Z" fill="#145B4F"/>
<path d="M254.505 157.135C255.019 157.135 255.479 156.786 255.626 156.271C255.791 155.665 255.405 155.022 254.799 154.875C238.596 150.723 237.586 140.969 237.549 140.564C237.494 139.94 236.943 139.462 236.318 139.517C235.694 139.572 235.216 140.123 235.271 140.748C235.308 141.226 236.355 152.524 254.248 157.116C254.321 157.135 254.413 157.135 254.505 157.135Z" fill="#145B4F"/>
<path d="M229.611 258.724C251.215 258.724 269.935 253.176 282.463 248.142C298.078 241.878 307.778 235.007 307.87 234.934C308.384 234.567 308.513 233.85 308.145 233.336C307.778 232.821 307.062 232.693 306.547 233.06C306.455 233.134 296.939 239.876 281.563 246.03C267.4 251.706 245.19 258.062 219.912 256.023C219.269 255.968 218.718 256.446 218.681 257.07C218.626 257.695 219.104 258.265 219.728 258.301C223.072 258.614 226.378 258.724 229.611 258.724Z" fill="#145B4F"/>
<path d="M295.016 299.378C295.016 299.378 243.395 286.225 211.228 285.839L201.4 328.404C201.4 328.404 252.378 336.983 284.636 342.604L295.016 299.378Z" fill="#145B4F"/>
<path d="M323.969 167.129C333.907 167.129 341.512 164.355 346.693 161.489C354.96 156.933 358.964 151.33 359.13 151.092C359.497 150.577 359.369 149.861 358.854 149.493C358.34 149.126 357.623 149.254 357.256 149.769C357.219 149.824 353.325 155.243 345.499 159.524C338.279 163.473 326.136 167.258 309.236 162.83C308.629 162.665 307.986 163.032 307.839 163.657C307.674 164.263 308.041 164.906 308.666 165.053C314.251 166.523 319.358 167.129 323.969 167.129Z" fill="#145B4F"/>
<path d="M191.807 322.046C192.578 319.254 193.35 316.535 194.066 313.89C193.332 316.535 192.578 319.254 191.807 322.046Z" fill="#26120C"/>
<path d="M195.538 308.471C195.814 307.46 196.071 306.487 196.328 305.513C196.071 306.487 195.814 307.479 195.538 308.471Z" fill="#26120C"/>
<path d="M206.908 253.433C206.981 253.452 207.073 253.489 207.165 253.489C207.918 253.58 208.616 253.048 208.708 252.294C211.225 233.079 213.999 210.244 214.256 203.796C214.293 203.043 213.705 202.4 212.934 202.363C212.18 202.327 211.537 202.915 211.501 203.686C211.243 210.042 208.469 232.767 205.971 251.945C205.879 252.607 206.283 253.231 206.908 253.433Z" fill="#145B4F"/>
<path d="M257.132 38.9016C257.132 38.9016 243.814 49.3728 252.558 65.3368C252.54 65.3368 257.335 46.6907 257.132 38.9016Z" fill="#26120C"/>
<path d="M310.458 110.933C310.458 110.933 319.093 119.328 320.874 113.137C322.656 106.946 319.644 103.86 319.644 103.86C319.644 103.86 328.976 112.825 329.123 106.065C329.27 99.3225 324.402 93.297 324.402 93.297C324.402 93.297 333.054 86.9592 330.225 76.8187C327.396 66.6782 327.047 59.2565 329.876 50.953C332.705 42.6496 331.419 34.0705 327.322 30.3597C321.334 24.922 312.626 25.7671 312.626 25.7671C312.626 25.7671 307.997 10.593 290.655 10.9972C273.313 11.4013 263.209 -2.13772 254.465 1.38942C245.721 4.91656 235.69 33.8133 259.223 42.374C259.223 42.3556 305.847 73.6406 310.458 110.933Z" fill="#26120C"/>
<path d="M266.416 119.179L265.277 130.146C266.453 131.322 267.647 132.35 268.878 133.269C286.716 146.679 308.723 134.684 308.723 134.684L312.691 96.6934L271.946 116.515L266.416 119.179Z" fill="#F69D84"/>
<path opacity="0.5" d="M266.537 118.225L265.288 130.147C266.463 131.323 267.657 132.352 268.888 133.27C285.752 128.549 299.328 112.787 299.328 112.787L271.956 116.517L266.537 118.225Z" fill="#DB7A6D"/>
<path d="M248.48 94.2884C248.48 94.2884 246.074 116.939 269.661 119.346C293.084 121.752 310.977 105.017 311.895 104.264C311.913 104.245 311.932 104.245 311.932 104.245L312.685 99.5056L316.598 74.9259L318.692 61.791C318.692 61.791 324.167 38.3135 302.012 31.6082C285.827 26.7033 270.047 27.8423 261.339 35.6314C261.064 35.8886 260.788 36.1457 260.531 36.4029C257.757 39.1769 255.81 42.704 254.928 47.0211L251.713 70.6823L250.923 76.4874L248.48 94.2884Z" fill="#F69D84"/>
<path d="M258.081 64.0149C257.9 66.0124 258.576 67.708 259.621 67.7966C260.653 67.9076 261.649 66.3771 261.83 64.3796C262.011 62.3822 261.336 60.6866 260.29 60.5979C259.28 60.5006 258.285 62.0311 258.081 64.0149Z" fill="#26120C"/>
<path d="M265.72 63.3634C265.828 63.3374 265.913 63.2979 266.003 63.2002C266.219 62.9962 266.213 62.6563 265.995 62.4623C265.822 62.2955 261.682 58.2698 257 60.4825C256.745 60.6012 256.612 60.9177 256.753 61.1871C256.872 61.4429 257.189 61.575 257.458 61.4341C261.479 59.5516 265.221 63.1806 265.252 63.2301C265.394 63.3474 265.554 63.3845 265.72 63.3634Z" fill="#26120C"/>
<path d="M280.999 65.8714C280.818 67.8688 281.494 69.5644 282.539 69.6531C283.571 69.764 284.567 68.2335 284.748 66.2361C284.929 64.2386 284.254 62.543 283.208 62.4544C282.176 62.3434 281.18 63.8739 280.999 65.8714Z" fill="#26120C"/>
<path d="M289.343 66.0159C289.436 66.0121 289.558 65.9639 289.656 65.9021C289.895 65.7116 289.933 65.3989 289.743 65.1604C289.583 64.9714 286.01 60.4672 281.065 62.0607C280.801 62.1436 280.646 62.4465 280.715 62.7332C280.798 62.9977 281.101 63.1521 281.388 63.0828C285.611 61.7207 288.87 65.7886 288.901 65.838C289.021 65.9418 289.191 66.0147 289.343 66.0159Z" fill="#26120C"/>
<path d="M266.155 53.3679C268.258 53.4322 268.9 51.0061 266.959 50.3125C265.945 49.9545 264.636 49.819 263.059 50.2166C256.155 51.9423 256.237 56.1685 256.237 56.1685C256.237 56.1685 260.379 53.9647 264.044 53.4669C264.838 53.3776 265.541 53.3567 266.155 53.3679Z" fill="#26120C"/>
<path d="M283.481 55.2013C281.416 55.1527 280.931 52.2205 282.87 51.5C283.879 51.1175 285.16 51.0222 286.687 51.5948C293.325 54.0665 294.834 60.6642 294.834 60.6642C294.834 60.6642 289.073 56.2398 285.551 55.457C284.752 55.2859 284.058 55.2147 283.481 55.2013Z" fill="#26120C"/>
<path d="M316.58 74.9271C316.58 74.9271 311.271 76.5804 308.938 83.0284C305.429 82.661 302.986 79.3911 303.628 75.9191C303.996 73.8983 304.474 71.4918 305.025 68.7729C306.715 60.6348 309.305 58.0629 304.584 52.956C299.863 47.849 304.308 44.8178 300.01 41.2172C295.288 37.2676 283.641 44.2667 275.062 42.4848C264.885 40.3722 265.749 33.4649 256.876 41.3825C256.876 41.3825 259.227 29.4601 270.8 26.2453C282.374 23.012 314.89 25.8595 319.868 41.3458C324.846 56.8505 316.58 74.9271 316.58 74.9271Z" fill="#26120C"/>
<path d="M282.109 76.819C281.944 78.4723 285.195 80.1624 289.384 80.6033C293.572 81.0442 297.118 80.0522 297.283 78.4172C297.448 76.7639 294.197 75.0738 290.008 74.6329C285.82 74.192 282.293 75.1656 282.109 76.819Z" fill="#FF7C66"/>
<path d="M250.899 76.4892C251.487 76.6177 252.093 76.7096 252.718 76.7647C256.906 77.2056 260.452 76.2136 260.617 74.5603C260.782 72.9069 257.531 71.2168 253.342 70.7759C252.773 70.7208 252.222 70.6841 251.689 70.6841L250.899 76.4892Z" fill="#FF7C66"/>
<path d="M266.331 88.6301C274.616 89.4935 282.13 83.1006 282.24 83.0087C282.626 82.6781 282.681 82.0718 282.332 81.686C282.001 81.3003 281.395 81.2452 281.009 81.5942C280.513 82.0167 268.866 91.9 259.387 83.5231C259.002 83.1741 258.414 83.2108 258.065 83.5966C257.716 83.9824 257.752 84.5702 258.138 84.9193C260.783 87.2707 263.594 88.3545 266.331 88.6301Z" fill="#C05A4B"/>
<path d="M305.462 94.3076C305.535 94.5648 307.795 101.803 311.873 104.264C311.891 104.246 311.891 104.246 311.891 104.246L312.644 99.5065C312.663 99.5065 309.007 98.4777 305.462 94.3076Z" fill="#26120C"/>
<path d="M311.246 79.0062C311.246 79.0062 321.57 67.7818 327.21 78.0325C331.858 86.483 319.366 105.937 309.281 97.7624L311.246 79.0062Z" fill="#F69D84"/>
<path d="M310.92 94.2335C311.398 94.2886 311.839 93.9763 311.931 93.4987C313.896 84.3869 321.943 81.9988 322.292 81.8885C322.788 81.7416 323.082 81.2272 322.935 80.7312C322.788 80.2352 322.273 79.9413 321.777 80.0882C321.392 80.1984 312.317 82.8622 310.094 93.0945C309.984 93.6089 310.314 94.1049 310.81 94.2151C310.847 94.2335 310.884 94.2335 310.92 94.2335Z" fill="#DB7A6D"/>
<path d="M320.211 89.4951C320.487 89.5319 320.763 89.44 320.965 89.2196C321.332 88.8522 321.332 88.2643 320.965 87.8969C320.616 87.5478 317.548 84.5718 314.682 84.9943C314.168 85.0678 313.819 85.5455 313.892 86.0598C313.966 86.5742 314.443 86.9232 314.958 86.8498C316.611 86.6109 318.889 88.4847 319.642 89.2196C319.789 89.3849 319.991 89.4767 320.211 89.4951Z" fill="#DB7A6D"/>
<path d="M271.241 78.03C271.756 78.0851 272.215 77.7177 272.27 77.2033C272.325 76.6889 271.958 76.2297 271.443 76.1745C268.008 75.8255 266.593 73.8415 266.153 72.9965C270.672 65.7217 275.172 58.3735 275.228 58.3001C275.503 57.8592 275.356 57.2897 274.915 57.0141C274.474 56.7386 273.905 56.8855 273.629 57.3264C273.574 57.3999 268.908 65.0237 264.297 72.427C264.15 72.6658 264.113 72.9597 264.205 73.2353C264.242 73.4006 265.712 77.4605 271.241 78.03Z" fill="#DB7A6D"/>
<path opacity="0.3" d="M270.783 70.6088C270.6 73.7685 275.707 76.6343 282.228 77.0385C288.731 77.4426 294.169 75.2014 294.353 72.0417C294.536 68.882 289.429 66.0162 282.908 65.612C276.405 65.2263 270.985 67.4675 270.783 70.6088Z" fill="white"/>
<path opacity="0.3" d="M240.637 69.3415C240.453 72.5012 245.56 75.367 252.082 75.7712C258.585 76.1753 264.022 73.9341 264.206 70.7744C264.39 67.6147 259.283 64.7489 252.761 64.3447C246.258 63.9589 240.839 66.2001 240.637 69.3415Z" fill="white"/>
<path d="M264.152 70.7551C264.318 70.7551 264.483 70.7 264.612 70.5898C267.092 68.4221 270.362 70.5531 270.49 70.6449C270.803 70.847 271.243 70.7735 271.446 70.4612C271.648 70.1489 271.574 69.708 271.262 69.506C269.792 68.5139 266.32 67.2647 263.712 69.5611C263.418 69.8182 263.399 70.2408 263.638 70.5347C263.767 70.6633 263.969 70.7551 264.152 70.7551Z" fill="#26120C"/>
<path d="M319.285 73.9153C319.487 73.9153 319.689 73.8234 319.836 73.6397C320.075 73.3458 320.02 72.9049 319.708 72.6661C309.31 64.6015 294.669 70.4249 294.062 70.6637C293.713 70.8107 293.548 71.2148 293.677 71.5639C293.824 71.9129 294.228 72.0782 294.577 71.9497C294.724 71.8945 309.09 66.1813 318.863 73.7683C318.973 73.8786 319.12 73.9153 319.285 73.9153Z" fill="#26120C"/>
<path d="M338.645 392.736C338.645 392.736 335.393 487.547 220.963 449.795C159.845 429.624 132.73 414.138 132.73 414.138C132.73 414.138 113.459 467.633 103.098 489.457C92.7371 511.281 63.9505 564.703 63.9505 564.703L14.5706 552.541C14.5706 552.541 72.0703 352.413 107.58 343.944C143.091 335.476 185.692 348.941 260.827 365.989C260.845 366.007 326.465 376.056 338.645 392.736Z" fill="#2B2B39"/>
<path opacity="0.1" d="M62.5543 546.737C63.1422 546.939 63.8218 546.7 64.1525 546.149C80.0981 520.356 95.9335 481.282 108.646 449.887C114.01 436.679 118.621 425.252 122.479 416.729C127.696 405.173 129.827 402.877 130.635 402.528C134.181 401.003 145.828 406.276 160.561 412.926C181.907 422.57 214.148 437.157 251.66 444.946C270.894 448.932 287.574 446.323 301.187 437.175C325.436 420.899 331.425 390.055 331.664 388.75C331.811 387.997 331.315 387.281 330.561 387.152C329.808 387.005 329.092 387.501 328.945 388.254C328.89 388.567 322.901 419.3 299.626 434.915C286.638 443.623 270.692 446.085 252.211 442.264C214.993 434.548 182.918 420.035 161.681 410.427C144.542 402.675 134.199 398.009 129.533 400.011C125.29 401.83 118.566 418.014 106.074 448.859C93.3983 480.143 77.6181 519.107 61.7828 544.697C61.3786 545.34 61.5807 546.204 62.2236 546.59C62.3706 546.663 62.4624 546.718 62.5543 546.737Z" fill="#E6EFF5"/>
<path d="M224.546 369.688L73.3288 354.975C73.035 354.954 72.8374 354.726 72.8604 354.503L74.959 339.278C75.0007 339.041 75.2614 338.882 75.5368 338.903L226.754 353.616C227.048 353.637 227.245 353.864 227.222 354.088L225.124 369.312C225.101 369.535 224.84 369.709 224.546 369.688Z" fill="#A7C6DB"/>
<path d="M60.027 353.014L60.028 353.015L140.5 360.599L117.993 236.779L117.993 236.779C117.227 232.56 113.757 229.378 109.485 228.969C109.485 228.969 109.485 228.969 109.484 228.969L41.2404 222.54C34.9772 221.961 29.873 227.458 30.9109 233.651L49.3548 343.102L49.3549 343.102C50.2528 348.438 54.6397 352.514 60.027 353.014Z" fill="white" stroke="#A7C6DB" stroke-width="1.5237"/>
<path d="M117.341 237.341L139.845 361.121L147.652 361.856L125.148 238.076C124.303 233.52 120.574 230.066 115.963 229.644L108.156 228.909C112.748 229.331 116.496 232.785 117.341 237.341Z" fill="#A7C6DB"/>
<path d="M92.4983 294.29C93.4168 301.142 88.7323 306.176 82.0271 305.551C75.3219 304.926 69.1494 298.846 68.2309 291.994C67.3123 285.141 71.9968 280.108 78.7021 280.733C85.4073 281.376 91.5798 287.438 92.4983 294.29Z" fill="#A7C6DB"/>
<path d="M188.154 324.031C188.154 324.031 152.626 316.095 140.207 322.01L144.561 344.55C144.561 344.55 164.585 343.154 169.251 345.469C173.917 347.784 174.174 356.767 192.141 357.281L188.154 324.031Z" fill="#F69D84"/>
<path d="M192.05 319.584L196.22 318.904L204.597 317.545C210.182 316.608 215.748 315.616 221.314 314.569C232.428 312.53 243.469 310.289 254.271 307.827C259.672 306.578 265.018 305.255 270.253 303.877C275.489 302.481 280.614 300.993 285.501 299.358C290.35 297.742 295.035 296.015 298.893 294.196C300.803 293.296 302.493 292.377 303.651 291.624C303.669 291.606 303.669 291.606 303.687 291.587L303.853 291.33C304.496 290.32 305.084 289.273 305.671 288.226C306.847 286.131 307.986 284.019 309.052 281.851C311.219 277.534 313.13 273.07 314.857 268.514C318.329 259.384 320.901 249.795 322.756 239.948C323.675 235.025 324.391 230.046 324.924 225.013C325.475 219.979 325.824 214.909 325.989 209.839C326.173 204.769 326.191 199.68 325.989 194.665C325.897 192.148 325.75 189.668 325.548 187.225C325.456 186.012 325.346 184.8 325.236 183.642L325.052 181.971L324.905 180.85L382.368 171.922L382.515 172.951L382.625 173.704L382.791 175.137L383.085 177.782C383.268 179.509 383.415 181.199 383.526 182.871C383.764 186.233 383.911 189.539 383.985 192.828C384.169 199.404 384.077 205.944 383.746 212.466C383.03 225.509 381.321 238.515 378.492 251.43C377.776 254.644 377.004 257.878 376.159 261.074C375.296 264.271 374.359 267.467 373.367 270.645C371.346 277.001 369.031 283.284 366.404 289.475C363.943 295.151 361.242 300.754 358.229 306.229C357.972 306.706 357.715 307.184 357.439 307.662C355.805 310.619 354.041 313.54 352.222 316.424C351.304 317.857 350.385 319.29 349.43 320.705L348.714 321.77L348.364 322.303L347.648 323.332C346.362 325.15 345.058 326.675 343.809 327.979C342.559 329.284 341.347 330.423 340.19 331.396C339.014 332.407 337.912 333.252 336.809 334.042C334.642 335.585 332.621 336.852 330.674 337.936C327.936 339.461 325.383 340.71 322.903 341.794C321.874 342.253 320.845 342.676 319.853 343.098C316.437 344.494 313.148 345.652 309.933 346.699C306.719 347.764 303.559 348.683 300.417 349.528C294.172 351.218 288.054 352.633 281.992 353.882C275.93 355.149 269.922 356.233 263.915 357.225C251.938 359.209 240.052 360.752 228.203 362.057C222.269 362.681 216.336 363.251 210.402 363.765C207.426 364.022 204.468 364.261 201.492 364.482L197.01 364.794L192.399 365.069L187.99 320.209L192.05 319.584ZM304.79 290.779C304.863 290.706 304.9 290.651 304.808 290.706C304.753 290.742 304.588 290.853 304.33 291.11C304.275 291.165 304.22 291.238 304.147 291.312C304.459 291.073 304.679 290.889 304.79 290.779Z" fill="#218C79"/>
<path d="M322.922 341.795C325.402 340.711 327.973 339.462 330.692 337.937C332.621 336.835 334.66 335.586 336.828 334.043C337.93 333.253 339.032 332.408 340.208 331.397C341.366 330.424 342.578 329.285 343.827 327.98C345.058 326.694 346.381 325.151 347.667 323.333L348.383 322.304L348.732 321.771L349.449 320.706C350.422 319.291 351.322 317.858 352.241 316.425C354.06 313.541 355.805 310.62 357.458 307.663C357.734 307.185 357.991 306.707 358.248 306.23C358.101 306.156 357.954 306.083 357.789 306.009C357.77 306.028 320.717 306.524 322.922 341.795Z" fill="#145B4F"/>
<path d="M245.56 361.468C245.744 361.524 245.928 361.542 246.13 361.524C246.589 361.487 293.177 356.949 319.263 344.715C345.551 332.388 357.877 308.855 358.373 307.863C358.722 307.184 358.447 306.357 357.786 306.008C357.106 305.659 356.279 305.934 355.93 306.596C355.802 306.835 343.493 330.294 318.087 342.216C292.442 354.249 246.332 358.731 245.873 358.768C245.119 358.841 244.55 359.521 244.623 360.274C244.678 360.844 245.064 361.303 245.56 361.468Z" fill="#145B4F"/>
<path d="M320.533 307.809C320.992 307.956 321.525 307.864 321.911 307.497C322.462 306.982 322.499 306.101 321.966 305.549C315.518 298.679 306.259 291.79 305.855 291.496C305.249 291.037 304.386 291.165 303.926 291.79C303.467 292.396 303.596 293.26 304.22 293.719C304.312 293.792 313.681 300.755 319.964 307.442C320.129 307.607 320.331 307.736 320.533 307.809Z" fill="#145B4F"/>
<path d="M305.267 294.416C305.322 294.435 305.359 294.453 305.414 294.453C310.907 295.61 318.126 297.962 318.2 297.98C318.916 298.219 319.706 297.815 319.945 297.098C320.184 296.382 319.78 295.592 319.063 295.372C318.769 295.28 311.623 292.965 305.983 291.771C305.23 291.606 304.514 292.083 304.348 292.836C304.201 293.516 304.605 294.196 305.267 294.416Z" fill="#145B4F"/>
<path d="M317.647 260.743C317.665 260.743 317.665 260.743 317.683 260.761C318.418 260.982 319.19 260.559 319.392 259.824C319.925 258.042 332.251 216.121 332.27 195.013C332.27 194.26 331.645 193.635 330.892 193.635C330.139 193.635 329.514 194.26 329.514 195.013C329.514 215.717 316.875 258.612 316.747 259.053C316.563 259.769 316.949 260.522 317.647 260.743Z" fill="#145B4F"/>
<path d="M329.629 208.057C330.014 208.185 330.437 208.149 330.786 207.91C331.429 207.506 331.631 206.661 331.227 206.018L326.708 198.816C326.304 198.173 325.459 197.971 324.816 198.375C324.173 198.78 323.971 199.625 324.375 200.268L328.894 207.469C329.059 207.763 329.335 207.946 329.629 208.057Z" fill="#145B4F"/>
<path d="M213.934 363.196C214.118 363.251 214.32 363.288 214.522 363.251C215.275 363.178 215.826 362.48 215.734 361.727L210.995 318.225C210.903 317.472 210.223 316.921 209.47 317.013C208.717 317.086 208.166 317.785 208.257 318.538L212.997 362.039C213.052 362.59 213.438 363.031 213.934 363.196Z" fill="#145B4F"/>
<path d="M250.082 294.179C250.56 294.179 251.019 293.867 251.166 293.389C264.503 253.58 283.774 154.416 283.957 153.406C284.086 152.781 283.663 152.175 283.039 152.065C282.414 151.936 281.808 152.359 281.698 152.983C281.514 153.975 262.28 252.992 248.98 292.673C248.778 293.279 249.109 293.922 249.696 294.124C249.843 294.161 249.954 294.179 250.082 294.179Z" fill="white"/>
<path d="M221.57 290.396C222.14 290.396 222.636 289.973 222.709 289.404C230.829 230.14 264.722 150.376 265.071 149.567C265.329 148.98 265.053 148.3 264.465 148.061C263.877 147.804 263.198 148.079 262.959 148.667C262.61 149.476 228.588 229.516 220.431 289.091C220.339 289.716 220.78 290.304 221.423 290.396C221.46 290.396 221.515 290.396 221.57 290.396Z" fill="white"/>
</g>
<defs>
<clipPath id="clip0_501_39530">
<rect width="453.836" height="445" fill="white"/>
</clipPath>
</defs>
</svg>
